<svg width="100%" height="100%" viewBox="0 0 456 456" version="1.1" xmlns="http://www.w3.org/2000/svg" xmlns:xlink="http://www.w3.org/1999/xlink" xml:space="preserve" style="fill-rule:evenodd;clip-rule:evenodd;stroke-linejoin:round;stroke-miterlimit:2">
    <g transform="matrix(.39063 0 0 .39063 133 128)">
        <g id="_x30_18_Wishlist">
            <path d="M375.902 76.077v409.802c0 12.239-9.876 22.115-22.115 22.115H26.116c-12.239 0-22.115-9.875-22.115-22.115V76.077c0-12.239 9.876-22.115 22.115-22.115h327.671c12.239 0 22.115 9.875 22.115 22.115Z" style="fill:#d3d9d9;fill-rule:nonzero"/>
            <path d="M52.591 508.025h-26.5c-12.193 0-22.11-9.917-22.11-22.11V76.059c0-12.193 9.917-22.111 22.11-22.111h26.5c-12.275 0-22.112 9.917-22.112 22.111v409.855c-.001 12.194 9.837 22.111 22.112 22.111Z" style="fill:#ededed;fill-rule:nonzero"/>
            <path d="M375.902 76.06v409.855c0 12.193-9.917 22.11-22.11 22.11h-26.5c12.275 0 22.112-9.917 22.112-22.11V76.06c0-12.193-9.838-22.111-22.112-22.111h26.5c12.193 0 22.11 9.917 22.11 22.111Z" style="fill:#a8b2b4;fill-rule:nonzero"/>
            <path style="fill:#fff" d="M37.124 87.081h305.653v387.792H37.124z"/>
            <path d="M284.403 48.911v42.71c0 5.402-4.389 9.792-9.791 9.792H106.388c-5.402 0-9.792-4.389-9.792-9.792v-42.71c0-5.402 4.389-9.791 9.792-9.791h3.63c21.186 0 40.6-9.792 55.54-24.731 6.415-6.415 15.193-10.382 24.901-10.382 9.79 0 18.569 3.883 24.9 10.298 15.025 15.024 34.439 24.816 55.624 24.816h3.63c5.401-.001 9.79 4.387 9.79 9.79Z" style="fill:#fedd8e;fill-rule:nonzero"/>
            <path d="M129.408 39.154h1.582v-3.339c-6.73 2.113-13.753 3.339-21.011 3.339h-3.576c-5.446 0-9.836 4.39-9.836 9.755v42.676a9.818 9.818 0 0 0 9.836 9.836h23.005c-5.364 0-9.754-4.39-9.754-9.836V48.909c-.001-5.365 4.389-9.755 9.754-9.755Z" style="fill:#fdd367;fill-rule:nonzero"/>
            <path d="M251.562 39.154h-1.582v-3.339c6.73 2.113 13.753 3.339 21.011 3.339h3.576c5.446 0 9.836 4.39 9.836 9.755v42.676a9.818 9.818 0 0 1-9.836 9.836h-23.005c5.364 0 9.754-4.39 9.754-9.836V48.909c0-5.365-4.389-9.755-9.754-9.755Z" style="fill:#fee9b4;fill-rule:nonzero"/>
            <path d="M213.523 55.747c0 12.687-10.291 22.979-23.066 22.979-12.688 0-22.98-10.292-22.98-22.979s10.292-22.979 22.98-22.979c12.775.001 23.066 10.292 23.066 22.979Z" style="fill:#fff;fill-rule:nonzero"/>
            <path d="M190.456 82.728c-14.879 0-26.982-12.102-26.982-26.982 0-14.876 12.102-26.978 26.982-26.978 14.926 0 27.067 12.102 27.067 26.978.001 14.88-12.14 26.982-27.067 26.982Zm0-45.958c-10.465 0-18.981 8.512-18.981 18.977s8.516 18.981 18.981 18.981c10.512 0 19.067-8.516 19.067-18.981 0-10.465-8.554-18.977-19.067-18.977ZM302.137 434.631H173.445c-2.211 0-4-1.789-4-4 0-2.211 1.789-4 4-4h128.692c2.211 0 4 1.789 4 4 0 2.212-1.789 4-4 4ZM238.568 406.655h-65.124c-2.211 0-4-1.789-4-4 0-2.211 1.789-4 4-4h65.124c2.211 0 4 1.789 4 4 0 2.211-1.789 4-4 4Z" style="fill:#333;fill-rule:nonzero"/>
            <path d="M132.799 401.655v29.98c0 6.895-5.59 12.485-12.485 12.485H90.252c-6.895 0-12.485-5.59-12.485-12.485v-29.98c0-6.896 5.59-12.485 12.485-12.485h30.062c6.895-.001 12.485 5.589 12.485 12.485Z" style="fill:#7bde9e;fill-rule:nonzero"/>
            <path d="M132.821 401.628v29.995c0 6.909-5.608 12.518-12.519 12.518H90.226c-6.91 0-12.437-5.609-12.437-12.518v-6.666h23.331c6.908 0 12.517-5.609 12.517-12.518V389.19h6.666c6.91 0 12.518 5.608 12.518 12.438Z" style="fill:#51d27f;fill-rule:nonzero"/>
            <path d="M120.313 448.12h-30.06c-9.09 0-16.485-7.395-16.485-16.485v-29.982c0-9.09 7.395-16.485 16.485-16.485h30.06c9.09 0 16.485 7.395 16.485 16.485v29.982c0 9.09-7.395 16.485-16.485 16.485Zm-30.06-54.95c-4.68 0-8.485 3.805-8.485 8.485v29.982c0 4.68 3.805 8.485 8.485 8.485h30.06c4.68 0 8.485-3.805 8.485-8.485v-29.982c0-4.68-3.805-8.485-8.485-8.485h-30.06ZM302.137 348.961H173.445c-2.211 0-4-1.789-4-4 0-2.211 1.789-4 4-4h128.692c2.211 0 4 1.789 4 4 0 2.211-1.789 4-4 4ZM238.568 320.984h-65.124c-2.211 0-4-1.789-4-4 0-2.211 1.789-4 4-4h65.124c2.211 0 4 1.789 4 4 0 2.21-1.789 4-4 4Z" style="fill:#333;fill-rule:nonzero"/>
            <path d="M132.799 315.983v29.98c0 6.895-5.59 12.485-12.485 12.485H90.252c-6.895 0-12.485-5.59-12.485-12.485v-29.98c0-6.895 5.59-12.485 12.485-12.485h30.062c6.895 0 12.485 5.59 12.485 12.485Z" style="fill:#7bde9e;fill-rule:nonzero"/>
            <path d="M132.821 315.956v29.995c0 6.909-5.608 12.518-12.519 12.518H90.226c-6.91 0-12.437-5.609-12.437-12.518v-6.666h23.331c6.908 0 12.517-5.609 12.517-12.518v-23.249h6.666c6.91.001 12.518 5.61 12.518 12.438Z" style="fill:#51d27f;fill-rule:nonzero"/>
            <path d="M120.313 362.45h-30.06c-9.09 0-16.485-7.395-16.485-16.485v-29.982c0-9.09 7.395-16.485 16.485-16.485h30.06c9.09 0 16.485 7.395 16.485 16.485v29.982c0 9.09-7.395 16.485-16.485 16.485Zm-30.06-54.951c-4.68 0-8.485 3.805-8.485 8.485v29.982c0 4.68 3.805 8.485 8.485 8.485h30.06c4.68 0 8.485-3.805 8.485-8.485v-29.982c0-4.68-3.805-8.485-8.485-8.485h-30.06ZM302.137 263.29H173.445c-2.211 0-4-1.789-4-4 0-2.211 1.789-4 4-4h128.692c2.211 0 4 1.789 4 4 0 2.211-1.789 4-4 4ZM238.568 235.312h-65.124c-2.211 0-4-1.789-4-4 0-2.211 1.789-4 4-4h65.124c2.211 0 4 1.789 4 4 0 2.211-1.789 4-4 4Z" style="fill:#333;fill-rule:nonzero"/>
            <path d="M132.799 230.311v29.98c0 6.895-5.59 12.485-12.485 12.485H90.252c-6.895 0-12.485-5.59-12.485-12.485v-29.98c0-6.895 5.59-12.485 12.485-12.485h30.062c6.895 0 12.485 5.59 12.485 12.485Z" style="fill:#7bde9e;fill-rule:nonzero"/>
            <path d="M132.821 230.284v29.995c0 6.909-5.608 12.518-12.519 12.518H90.226c-6.91 0-12.437-5.609-12.437-12.518v-6.666h23.331c6.908 0 12.517-5.609 12.517-12.518v-23.249h6.666c6.91.001 12.518 5.61 12.518 12.438Z" style="fill:#51d27f;fill-rule:nonzero"/>
            <path d="M120.313 276.779h-30.06c-9.09 0-16.485-7.399-16.485-16.489v-29.978c0-9.09 7.395-16.485 16.485-16.485h30.06c9.09 0 16.485 7.395 16.485 16.485v29.978c0 9.09-7.395 16.489-16.485 16.489Zm-30.06-54.952c-4.68 0-8.485 3.805-8.485 8.485v29.978c0 4.68 3.805 8.489 8.485 8.489h30.06c4.68 0 8.485-3.809 8.485-8.489v-29.978c0-4.68-3.805-8.485-8.485-8.485h-30.06ZM302.137 177.599H173.445c-2.211 0-4-1.789-4-4 0-2.211 1.789-4 4-4h128.692c2.211 0 4 1.789 4 4 0 2.211-1.789 4-4 4ZM238.568 149.618h-65.124c-2.211 0-4-1.789-4-4 0-2.211 1.789-4 4-4h65.124c2.211 0 4 1.789 4 4 0 2.211-1.789 4-4 4Z" style="fill:#333;fill-rule:nonzero"/>
            <path d="M132.799 144.618v29.98c0 6.895-5.59 12.485-12.485 12.485H90.252c-6.895 0-12.485-5.59-12.485-12.485v-29.98c0-6.895 5.59-12.485 12.485-12.485h30.062c6.895 0 12.485 5.59 12.485 12.485Z" style="fill:#7bde9e;fill-rule:nonzero"/>
            <path d="M132.821 144.591v29.995c0 6.909-5.608 12.518-12.519 12.518H90.226c-6.91 0-12.437-5.609-12.437-12.518v-6.666h23.331c6.908 0 12.517-5.609 12.517-12.518v-23.249h6.666c6.91.001 12.518 5.61 12.518 12.438Z" style="fill:#51d27f;fill-rule:nonzero"/>
            <path d="M120.313 191.084h-30.06c-9.09 0-16.485-7.395-16.485-16.485v-29.982c0-9.09 7.395-16.485 16.485-16.485h30.06c9.09 0 16.485 7.395 16.485 16.485v29.982c0 9.09-7.395 16.485-16.485 16.485Zm-30.06-54.951c-4.68 0-8.485 3.805-8.485 8.485V174.6c0 4.68 3.805 8.485 8.485 8.485h30.06c4.68 0 8.485-3.805 8.485-8.485v-29.982c0-4.68-3.805-8.485-8.485-8.485h-30.06Z" style="fill:#333;fill-rule:nonzero"/>
            <path d="M508 219.049c0 51.966-100.765 143.969-100.765 143.969s-100.767-92.003-100.767-143.969c0-29.792 24.198-53.989 54.056-53.989a53.93 53.93 0 0 1 46.711 26.893 53.924 53.924 0 0 1 46.709-26.893c29.858 0 54.056 24.197 54.056 53.989Z" style="fill:#fc8a8a;fill-rule:nonzero"/>
            <path d="M431.412 170.04c-17.684 45.617-77.652 104.091-92.516 118.144-17.939-24.005-32.418-49.462-32.418-69.152 0-29.771 24.175-53.989 54.031-53.989 19.905 0 37.416 10.806 46.727 26.909 5.553-9.61 14.01-17.341 24.176-21.912Z" style="fill:#fcb0b0;fill-rule:nonzero"/>
            <path d="M507.995 219.032c0 51.981-100.759 143.984-100.759 143.984s-16.274-14.864-35.707-35.964c4.015-3.673 100.631-92.943 100.631-143.856 0-5.51-.812-10.806-2.349-15.803 22.082 6.791 38.184 27.378 38.184 51.639Z" style="fill:#f96364;fill-rule:nonzero"/>
            <path d="M453.943 161.06c-18.524 0-35.896 8.903-46.709 23.595-6.903-9.379-16.491-16.363-27.333-20.214V76.076c0-14.399-11.715-26.114-26.114-26.114h-65.385v-1.051c0-7.602-6.188-13.79-13.79-13.79h-3.629c-18.798 0-37.548-8.399-52.775-23.626C210.895 4.085 201.039.006 190.461.006c-10.438 0-20.286 4.106-27.732 11.555-15.192 15.192-33.911 23.56-52.709 23.56h-3.633c-7.602 0-13.79 6.188-13.79 13.79v1.051H26.118C11.716 49.962 0 61.677 0 76.076v409.801c0 14.403 11.715 26.118 26.118 26.118h327.669c14.399 0 26.114-11.715 26.114-26.118V341.815c13.315 13.753 23.364 22.991 24.638 24.155a3.98 3.98 0 0 0 2.695 1.047c.965 0 1.934-.348 2.695-1.047C414.098 362.165 512 272.169 512 219.05c0-31.978-26.044-57.99-58.057-57.99ZM353.787 57.962c9.989 0 18.114 8.125 18.114 18.114v86.204c-3.716-.747-7.509-1.221-11.375-1.221-4.743 0-9.33.634-13.747 1.711V87.08c0-2.211-1.789-4-4-4h-54.377V57.962h65.385Zm-253.189-9.051a5.796 5.796 0 0 1 5.789-5.789h3.633c20.934 0 41.662-9.2 58.365-25.903 5.938-5.942 13.778-9.211 22.075-9.211 8.422 0 16.255 3.234 22.071 9.125 16.758 16.758 37.517 25.989 58.451 25.989h3.629a5.796 5.796 0 0 1 5.789 5.789V91.62a5.798 5.798 0 0 1-5.789 5.793H106.386a5.797 5.797 0 0 1-5.789-5.793V48.911h.001Zm5.789 56.502h168.225c7.602 0 13.79-6.188 13.79-13.794v-.539h50.377v74.239c-21.262 8.618-36.31 29.436-36.31 53.731 0 21.83 16.542 49.883 36.31 75.627v176.195H41.124V91.08h51.475v.539c-.002 7.606 6.186 13.794 13.788 13.794Zm265.514 380.464c0 9.989-8.125 18.118-18.114 18.118H26.118C16.129 503.995 8 495.866 8 485.877V76.076c0-9.989 8.129-18.114 18.118-18.114h66.479V83.08H37.122c-2.211 0-4 1.789-4 4v387.792c0 2.211 1.789 4 4 4h305.656c2.211 0 4-1.789 4-4V304.776c8.443 10.343 17.119 20.073 25.122 28.627v152.473h.001v.001Zm35.333-128.333c-15.926-15.028-96.765-93.543-96.765-138.494 0-27.563 22.454-49.99 50.057-49.99 17.809 0 34.376 9.539 43.244 24.891 1.43 2.477 5.5 2.477 6.93 0 8.867-15.352 25.435-24.891 43.244-24.891 27.603 0 50.057 22.427 50.057 49.99-.001 44.951-80.84 123.466-96.767 138.494Z" style="fill:#333;fill-rule:nonzero"/>
            <path d="m478.095 223.702-69.992 69.992c-2.534 2.497-5.802 3.782-9.107 3.782a12.862 12.862 0 0 1-9.07-3.782l-27.872-27.872a2.039 2.039 0 0 1 0-2.901l15.277-15.276a2.039 2.039 0 0 1 2.901 0l18.764 18.802 60.922-60.921c.771-.771 2.093-.771 2.864 0l15.313 15.313c.771.77.771 2.092 0 2.863Z" style="fill:#fff;fill-rule:nonzero"/>
            <path d="m478.096 223.687-70.005 70.006c-2.52 2.477-5.809 3.802-9.098 3.802-3.246 0-6.578-1.324-9.055-3.802l-27.891-27.891a1.986 1.986 0 0 1 0-2.862l7.09-7.09 20.802 20.801a12.885 12.885 0 0 0 9.055 3.759c3.289 0 6.578-1.281 9.098-3.759l62.916-62.916 7.09 7.09c.767.769.767 2.094-.002 2.862Z" style="fill:#ededed;fill-rule:nonzero"/>
            <path d="M398.996 301.475c-4.414 0-8.75-1.805-11.899-4.953l-27.872-27.872a6.009 6.009 0 0 1-1.777-4.285c0-1.613.637-3.133 1.785-4.277l15.27-15.27a6.06 6.06 0 0 1 8.559 0L399 260.787l58.088-58.088a6.03 6.03 0 0 1 8.524 0l15.313 15.313a5.975 5.975 0 0 1 1.75 4.258 5.977 5.977 0 0 1-1.75 4.262l-69.995 69.991c-3.246 3.202-7.477 4.952-11.934 4.952Zm-32.736-37.103 26.493 26.493c3.34 3.336 9.125 3.348 12.54-.02l68.577-68.577-12.52-12.52-59.526 59.526a3.998 3.998 0 0 1-2.828 1.172h-.004a3.99 3.99 0 0 1-2.828-1.176l-17.383-17.419-12.521 12.521Zm-1.375 1.375-.004.004c.004 0 .004-.004.004-.004Zm113.211-42.044h.039-.039Z" style="fill:#333;fill-rule:nonzero"/>
        </g>
    </g>
</svg>
