<?xml version="1.0" encoding="UTF-8" standalone="no"?>
<!DOCTYPE svg PUBLIC "-//W3C//DTD SVG 1.1//EN" "http://www.w3.org/Graphics/SVG/1.1/DTD/svg11.dtd">
<svg width="100%" height="100%" viewBox="0 0 1667 1667" version="1.1" xmlns="http://www.w3.org/2000/svg" xmlns:xlink="http://www.w3.org/1999/xlink" xml:space="preserve" xmlns:serif="http://www.serif.com/" style="fill-rule:evenodd;clip-rule:evenodd;stroke-linejoin:round;stroke-miterlimit:2;">
    <g transform="matrix(4.16667,0,0,4.16667,0,0)">
        <g transform="matrix(0.333333,0,0,0.333333,66.6667,40)">
            <path d="M519.902,220.077L519.902,629.879C519.902,642.118 510.026,651.994 497.787,651.994L170.116,651.994C157.877,651.994 148.001,642.119 148.001,629.879L148.001,220.077C148.001,207.838 157.877,197.962 170.116,197.962L497.787,197.962C510.026,197.962 519.902,207.837 519.902,220.077Z" style="fill:rgb(211,217,217);fill-rule:nonzero;"/>
        </g>
        <g transform="matrix(0.333333,0,0,0.333333,66.6667,40)">
            <path d="M196.591,652.025L170.091,652.025C157.898,652.025 147.981,642.108 147.981,629.915L147.981,220.059C147.981,207.866 157.898,197.948 170.091,197.948L196.591,197.948C184.316,197.948 174.479,207.865 174.479,220.059L174.479,629.914C174.478,642.108 184.316,652.025 196.591,652.025Z" style="fill:rgb(237,237,237);fill-rule:nonzero;"/>
        </g>
        <g transform="matrix(0.333333,0,0,0.333333,66.6667,40)">
            <path d="M519.902,220.06L519.902,629.915C519.902,642.108 509.985,652.025 497.792,652.025L471.292,652.025C483.567,652.025 493.404,642.108 493.404,629.915L493.404,220.06C493.404,207.867 483.566,197.949 471.292,197.949L497.792,197.949C509.985,197.949 519.902,207.866 519.902,220.06Z" style="fill:rgb(168,178,180);fill-rule:nonzero;"/>
        </g>
        <g transform="matrix(0.333333,0,0,0.333333,66.6667,40)">
            <rect x="181.124" y="231.081" width="305.653" height="387.792" style="fill:white;"/>
        </g>
        <g transform="matrix(0.333333,0,0,0.333333,66.6667,40)">
            <path d="M428.403,192.911L428.403,235.621C428.403,241.023 424.014,245.413 418.612,245.413L250.388,245.413C244.986,245.413 240.596,241.024 240.596,235.621L240.596,192.911C240.596,187.509 244.985,183.12 250.388,183.12L254.018,183.12C275.204,183.12 294.618,173.328 309.558,158.389C315.973,151.974 324.751,148.007 334.459,148.007C344.249,148.007 353.028,151.89 359.359,158.305C374.384,173.329 393.798,183.121 414.983,183.121L418.613,183.121C424.014,183.12 428.403,187.508 428.403,192.911Z" style="fill:rgb(254,221,142);fill-rule:nonzero;"/>
        </g>
        <g transform="matrix(0.333333,0,0,0.333333,66.6667,40)">
            <path d="M273.408,183.154L274.99,183.154L274.99,179.815C268.26,181.928 261.237,183.154 253.979,183.154L250.403,183.154C244.957,183.154 240.567,187.544 240.567,192.909L240.567,235.585C240.567,235.591 240.567,235.597 240.567,235.603C240.567,240.989 244.999,245.421 250.385,245.421C250.391,245.421 250.397,245.421 250.403,245.421L273.408,245.421C268.044,245.421 263.654,241.031 263.654,235.585L263.654,192.909C263.653,187.544 268.043,183.154 273.408,183.154Z" style="fill:rgb(253,211,103);fill-rule:nonzero;"/>
        </g>
        <g transform="matrix(0.333333,0,0,0.333333,66.6667,40)">
            <path d="M395.562,183.154L393.98,183.154L393.98,179.815C400.71,181.928 407.733,183.154 414.991,183.154L418.567,183.154C424.013,183.154 428.403,187.544 428.403,192.909L428.403,235.585C428.403,235.591 428.403,235.597 428.403,235.603C428.403,240.989 423.971,245.421 418.585,245.421C418.579,245.421 418.573,245.421 418.567,245.421L395.562,245.421C400.926,245.421 405.316,241.031 405.316,235.585L405.316,192.909C405.316,187.544 400.927,183.154 395.562,183.154Z" style="fill:rgb(254,233,180);fill-rule:nonzero;"/>
        </g>
        <g transform="matrix(0.333333,0,0,0.333333,66.6667,40)">
            <path d="M357.523,199.747C357.523,212.434 347.232,222.726 334.457,222.726C321.769,222.726 311.477,212.434 311.477,199.747C311.477,187.06 321.769,176.768 334.457,176.768C347.232,176.769 357.523,187.06 357.523,199.747Z" style="fill:white;fill-rule:nonzero;"/>
        </g>
        <g transform="matrix(0.333333,0,0,0.333333,66.6667,40)">
            <path d="M334.456,226.728C319.577,226.728 307.474,214.626 307.474,199.746C307.474,184.87 319.576,172.768 334.456,172.768C349.382,172.768 361.523,184.87 361.523,199.746C361.524,214.626 349.383,226.728 334.456,226.728ZM334.456,180.77C323.991,180.77 315.475,189.282 315.475,199.747C315.475,210.212 323.991,218.728 334.456,218.728C344.968,218.728 353.523,210.212 353.523,199.747C353.523,189.282 344.969,180.77 334.456,180.77ZM446.137,578.631L317.445,578.631C315.234,578.631 313.445,576.842 313.445,574.631C313.445,572.42 315.234,570.631 317.445,570.631L446.137,570.631C448.348,570.631 450.137,572.42 450.137,574.631C450.137,576.843 448.348,578.631 446.137,578.631ZM382.568,550.655L317.444,550.655C315.233,550.655 313.444,548.866 313.444,546.655C313.444,544.444 315.233,542.655 317.444,542.655L382.568,542.655C384.779,542.655 386.568,544.444 386.568,546.655C386.568,548.866 384.779,550.655 382.568,550.655Z" style="fill:rgb(51,51,51);fill-rule:nonzero;"/>
        </g>
        <g transform="matrix(0.333333,0,0,0.333333,66.6667,40)">
            <path d="M276.799,545.655L276.799,575.635C276.799,582.53 271.209,588.12 264.314,588.12L234.252,588.12C227.357,588.12 221.767,582.53 221.767,575.635L221.767,545.655C221.767,538.759 227.357,533.17 234.252,533.17L264.314,533.17C271.209,533.169 276.799,538.759 276.799,545.655Z" style="fill:rgb(123,222,158);fill-rule:nonzero;"/>
        </g>
        <g transform="matrix(0.333333,0,0,0.333333,66.6667,40)">
            <path d="M276.821,545.628L276.821,575.623C276.821,582.532 271.213,588.141 264.302,588.141L234.226,588.141C227.316,588.141 221.789,582.532 221.789,575.623L221.789,568.957L245.12,568.957C252.028,568.957 257.637,563.348 257.637,556.439L257.637,533.19L264.303,533.19C271.213,533.19 276.821,538.798 276.821,545.628Z" style="fill:rgb(81,210,127);fill-rule:nonzero;"/>
        </g>
        <g transform="matrix(0.333333,0,0,0.333333,66.6667,40)">
            <path d="M264.313,592.12L234.253,592.12C225.163,592.12 217.768,584.725 217.768,575.635L217.768,545.653C217.768,536.563 225.163,529.168 234.253,529.168L264.313,529.168C273.403,529.168 280.798,536.563 280.798,545.653L280.798,575.635C280.798,584.725 273.403,592.12 264.313,592.12ZM234.253,537.17C229.573,537.17 225.768,540.975 225.768,545.655L225.768,575.637C225.768,580.317 229.573,584.122 234.253,584.122L264.313,584.122C268.993,584.122 272.798,580.317 272.798,575.637L272.798,545.655C272.798,540.975 268.993,537.17 264.313,537.17L234.253,537.17ZM446.137,492.961L317.445,492.961C315.234,492.961 313.445,491.172 313.445,488.961C313.445,486.75 315.234,484.961 317.445,484.961L446.137,484.961C448.348,484.961 450.137,486.75 450.137,488.961C450.137,491.172 448.348,492.961 446.137,492.961ZM382.568,464.984L317.444,464.984C315.233,464.984 313.444,463.195 313.444,460.984C313.444,458.773 315.233,456.984 317.444,456.984L382.568,456.984C384.779,456.984 386.568,458.773 386.568,460.984C386.568,463.194 384.779,464.984 382.568,464.984Z" style="fill:rgb(51,51,51);fill-rule:nonzero;"/>
        </g>
        <g transform="matrix(0.333333,0,0,0.333333,66.6667,40)">
            <path d="M276.799,459.983L276.799,489.963C276.799,496.858 271.209,502.448 264.314,502.448L234.252,502.448C227.357,502.448 221.767,496.858 221.767,489.963L221.767,459.983C221.767,453.088 227.357,447.498 234.252,447.498L264.314,447.498C271.209,447.498 276.799,453.088 276.799,459.983Z" style="fill:rgb(123,222,158);fill-rule:nonzero;"/>
        </g>
        <g transform="matrix(0.333333,0,0,0.333333,66.6667,40)">
            <path d="M276.821,459.956L276.821,489.951C276.821,496.86 271.213,502.469 264.302,502.469L234.226,502.469C227.316,502.469 221.789,496.86 221.789,489.951L221.789,483.285L245.12,483.285C252.028,483.285 257.637,477.676 257.637,470.767L257.637,447.518L264.303,447.518C271.213,447.519 276.821,453.128 276.821,459.956Z" style="fill:rgb(81,210,127);fill-rule:nonzero;"/>
        </g>
        <g transform="matrix(0.333333,0,0,0.333333,66.6667,40)">
            <path d="M264.313,506.45L234.253,506.45C225.163,506.45 217.768,499.055 217.768,489.965L217.768,459.983C217.768,450.893 225.163,443.498 234.253,443.498L264.313,443.498C273.403,443.498 280.798,450.893 280.798,459.983L280.798,489.965C280.798,499.055 273.403,506.45 264.313,506.45ZM234.253,451.499C229.573,451.499 225.768,455.304 225.768,459.984L225.768,489.966C225.768,494.646 229.573,498.451 234.253,498.451L264.313,498.451C268.993,498.451 272.798,494.646 272.798,489.966L272.798,459.984C272.798,455.304 268.993,451.499 264.313,451.499L234.253,451.499ZM446.137,407.29L317.445,407.29C315.234,407.29 313.445,405.501 313.445,403.29C313.445,401.079 315.234,399.29 317.445,399.29L446.137,399.29C448.348,399.29 450.137,401.079 450.137,403.29C450.137,405.501 448.348,407.29 446.137,407.29ZM382.568,379.312L317.444,379.312C315.233,379.312 313.444,377.523 313.444,375.312C313.444,373.101 315.233,371.312 317.444,371.312L382.568,371.312C384.779,371.312 386.568,373.101 386.568,375.312C386.568,377.523 384.779,379.312 382.568,379.312Z" style="fill:rgb(51,51,51);fill-rule:nonzero;"/>
        </g>
        <g transform="matrix(0.333333,0,0,0.333333,66.6667,40)">
            <path d="M276.799,374.311L276.799,404.291C276.799,411.186 271.209,416.776 264.314,416.776L234.252,416.776C227.357,416.776 221.767,411.186 221.767,404.291L221.767,374.311C221.767,367.416 227.357,361.826 234.252,361.826L264.314,361.826C271.209,361.826 276.799,367.416 276.799,374.311Z" style="fill:rgb(123,222,158);fill-rule:nonzero;"/>
        </g>
        <g transform="matrix(0.333333,0,0,0.333333,66.6667,40)">
            <path d="M276.821,374.284L276.821,404.279C276.821,411.188 271.213,416.797 264.302,416.797L234.226,416.797C227.316,416.797 221.789,411.188 221.789,404.279L221.789,397.613L245.12,397.613C252.028,397.613 257.637,392.004 257.637,385.095L257.637,361.846L264.303,361.846C271.213,361.847 276.821,367.456 276.821,374.284Z" style="fill:rgb(81,210,127);fill-rule:nonzero;"/>
        </g>
        <g transform="matrix(0.333333,0,0,0.333333,66.6667,40)">
            <path d="M264.313,420.779L234.253,420.779C225.163,420.779 217.768,413.38 217.768,404.29L217.768,374.312C217.768,365.222 225.163,357.827 234.253,357.827L264.313,357.827C273.403,357.827 280.798,365.222 280.798,374.312L280.798,404.29C280.798,413.38 273.403,420.779 264.313,420.779ZM234.253,365.827C229.573,365.827 225.768,369.632 225.768,374.312L225.768,404.29C225.768,408.97 229.573,412.779 234.253,412.779L264.313,412.779C268.993,412.779 272.798,408.97 272.798,404.29L272.798,374.312C272.798,369.632 268.993,365.827 264.313,365.827L234.253,365.827ZM446.137,321.599L317.445,321.599C315.234,321.599 313.445,319.81 313.445,317.599C313.445,315.388 315.234,313.599 317.445,313.599L446.137,313.599C448.348,313.599 450.137,315.388 450.137,317.599C450.137,319.81 448.348,321.599 446.137,321.599ZM382.568,293.618L317.444,293.618C315.233,293.618 313.444,291.829 313.444,289.618C313.444,287.407 315.233,285.618 317.444,285.618L382.568,285.618C384.779,285.618 386.568,287.407 386.568,289.618C386.568,291.829 384.779,293.618 382.568,293.618Z" style="fill:rgb(51,51,51);fill-rule:nonzero;"/>
        </g>
        <g transform="matrix(0.333333,0,0,0.333333,66.6667,40)">
            <path d="M276.799,288.618L276.799,318.598C276.799,325.493 271.209,331.083 264.314,331.083L234.252,331.083C227.357,331.083 221.767,325.493 221.767,318.598L221.767,288.618C221.767,281.723 227.357,276.133 234.252,276.133L264.314,276.133C271.209,276.133 276.799,281.723 276.799,288.618Z" style="fill:rgb(123,222,158);fill-rule:nonzero;"/>
        </g>
        <g transform="matrix(0.333333,0,0,0.333333,66.6667,40)">
            <path d="M276.821,288.591L276.821,318.586C276.821,325.495 271.213,331.104 264.302,331.104L234.226,331.104C227.316,331.104 221.789,325.495 221.789,318.586L221.789,311.92L245.12,311.92C252.028,311.92 257.637,306.311 257.637,299.402L257.637,276.153L264.303,276.153C271.213,276.154 276.821,281.763 276.821,288.591Z" style="fill:rgb(81,210,127);fill-rule:nonzero;"/>
        </g>
        <g transform="matrix(0.333333,0,0,0.333333,66.6667,40)">
            <path d="M264.313,335.084L234.253,335.084C225.163,335.084 217.768,327.689 217.768,318.599L217.768,288.617C217.768,279.527 225.163,272.132 234.253,272.132L264.313,272.132C273.403,272.132 280.798,279.527 280.798,288.617L280.798,318.599C280.798,327.689 273.403,335.084 264.313,335.084ZM234.253,280.133C229.573,280.133 225.768,283.938 225.768,288.618L225.768,318.6C225.768,323.28 229.573,327.085 234.253,327.085L264.313,327.085C268.993,327.085 272.798,323.28 272.798,318.6L272.798,288.618C272.798,283.938 268.993,280.133 264.313,280.133L234.253,280.133Z" style="fill:rgb(51,51,51);fill-rule:nonzero;"/>
        </g>
        <g transform="matrix(0.333333,0,0,0.333333,66.6667,40)">
            <path d="M652,363.049C652,415.015 551.235,507.018 551.235,507.018C551.235,507.018 450.468,415.015 450.468,363.049C450.468,333.257 474.666,309.06 504.524,309.06C523.755,309.043 541.594,319.313 551.235,335.953C560.875,319.313 578.714,309.042 597.944,309.06C627.802,309.06 652,333.257 652,363.049Z" style="fill:rgb(252,138,138);fill-rule:nonzero;"/>
        </g>
        <g transform="matrix(0.333333,0,0,0.333333,66.6667,40)">
            <path d="M575.412,314.04C557.728,359.657 497.76,418.131 482.896,432.184C464.957,408.179 450.478,382.722 450.478,363.032C450.478,333.261 474.653,309.043 504.509,309.043C524.414,309.043 541.925,319.849 551.236,335.952C556.789,326.342 565.246,318.611 575.412,314.04Z" style="fill:rgb(252,176,176);fill-rule:nonzero;"/>
        </g>
        <g transform="matrix(0.333333,0,0,0.333333,66.6667,40)">
            <path d="M651.995,363.032C651.995,415.013 551.236,507.016 551.236,507.016C551.236,507.016 534.962,492.152 515.529,471.052C519.544,467.379 616.16,378.109 616.16,327.196C616.16,321.686 615.348,316.39 613.811,311.393C635.893,318.184 651.995,338.771 651.995,363.032Z" style="fill:rgb(249,99,100);fill-rule:nonzero;"/>
        </g>
        <g transform="matrix(0.333333,0,0,0.333333,66.6667,40)">
            <path d="M597.943,305.06C579.419,305.06 562.047,313.963 551.234,328.655C544.331,319.276 534.743,312.292 523.901,308.441L523.901,220.076C523.901,205.677 512.186,193.962 497.787,193.962L432.402,193.962L432.402,192.911C432.402,185.309 426.214,179.121 418.612,179.121L414.983,179.121C396.185,179.121 377.435,170.722 362.208,155.495C354.895,148.085 345.039,144.006 334.461,144.006C324.023,144.006 314.175,148.112 306.729,155.561C291.537,170.753 272.818,179.121 254.02,179.121L250.387,179.121C242.785,179.121 236.597,185.309 236.597,192.911L236.597,193.962L170.118,193.962C155.716,193.962 144,205.677 144,220.076L144,629.877C144,644.28 155.715,655.995 170.118,655.995L497.787,655.995C512.186,655.995 523.901,644.28 523.901,629.877L523.901,485.815C537.216,499.568 547.265,508.806 548.539,509.97C549.274,510.644 550.236,511.018 551.234,511.017C552.199,511.017 553.168,510.669 553.929,509.97C558.098,506.165 656,416.169 656,363.05C656,331.072 629.956,305.06 597.943,305.06ZM497.787,201.962C507.776,201.962 515.901,210.087 515.901,220.076L515.901,306.28C512.185,305.533 508.392,305.059 504.526,305.059C499.783,305.059 495.196,305.693 490.779,306.77L490.779,231.08C490.779,228.869 488.99,227.08 486.779,227.08L432.402,227.08L432.402,201.962L497.787,201.962ZM244.598,192.911C244.602,189.737 247.213,187.126 250.387,187.122L254.02,187.122C274.954,187.122 295.682,177.922 312.385,161.219C318.323,155.277 326.163,152.008 334.46,152.008C342.882,152.008 350.715,155.242 356.531,161.133C373.289,177.891 394.048,187.122 414.982,187.122L418.611,187.122C421.785,187.126 424.396,189.737 424.4,192.911L424.4,235.62C424.397,238.795 421.786,241.408 418.611,241.413L250.386,241.413C247.21,241.409 244.599,238.796 244.597,235.62L244.597,192.911L244.598,192.911ZM250.387,249.413L418.612,249.413C426.214,249.413 432.402,243.225 432.402,235.619L432.402,235.08L482.779,235.08L482.779,309.319C461.517,317.937 446.469,338.755 446.469,363.05C446.469,384.88 463.011,412.933 482.779,438.677L482.779,614.872L185.124,614.872L185.124,235.08L236.599,235.08L236.599,235.619C236.597,243.225 242.785,249.413 250.387,249.413ZM515.901,629.877C515.901,639.866 507.776,647.995 497.787,647.995L170.118,647.995C160.129,647.995 152,639.866 152,629.877L152,220.076C152,210.087 160.129,201.962 170.118,201.962L236.597,201.962L236.597,227.08L181.122,227.08C178.911,227.08 177.122,228.869 177.122,231.08L177.122,618.872C177.122,621.083 178.911,622.872 181.122,622.872L486.778,622.872C488.989,622.872 490.778,621.083 490.778,618.872L490.778,448.776C499.221,459.119 507.897,468.849 515.9,477.403L515.9,629.876L515.901,629.876L515.901,629.877ZM551.234,501.544C535.308,486.516 454.469,408.001 454.469,363.05C454.469,335.487 476.923,313.06 504.526,313.06C522.335,313.06 538.902,322.599 547.77,337.951C549.2,340.428 553.27,340.428 554.7,337.951C563.567,322.599 580.135,313.06 597.944,313.06C625.547,313.06 648.001,335.487 648.001,363.05C648,408.001 567.161,486.516 551.234,501.544Z" style="fill:rgb(51,51,51);fill-rule:nonzero;"/>
        </g>
        <g transform="matrix(0.333333,0,0,0.333333,66.6667,40)">
            <path d="M622.095,367.702L552.103,437.694C549.569,440.191 546.301,441.476 542.996,441.476C539.593,441.466 536.329,440.105 533.926,437.694L506.054,409.822C505.666,409.439 505.448,408.916 505.448,408.371C505.448,407.827 505.666,407.304 506.054,406.921L521.331,391.645C521.714,391.257 522.237,391.039 522.782,391.039C523.326,391.039 523.849,391.257 524.232,391.645L542.996,410.447L603.918,349.526C604.689,348.755 606.011,348.755 606.782,349.526L622.095,364.839C622.866,365.609 622.866,366.931 622.095,367.702Z" style="fill:white;fill-rule:nonzero;"/>
        </g>
        <g transform="matrix(0.333333,0,0,0.333333,66.6667,40)">
            <path d="M622.096,367.687L552.091,437.693C549.571,440.17 546.282,441.495 542.993,441.495C539.747,441.495 536.415,440.171 533.938,437.693L506.047,409.802C505.658,409.428 505.438,408.911 505.438,408.371C505.438,407.831 505.658,407.314 506.047,406.94L513.137,399.85L533.939,420.651C536.343,423.047 539.6,424.399 542.994,424.41C546.283,424.41 549.572,423.129 552.092,420.651L615.008,357.735L622.098,364.825C622.865,365.594 622.865,366.919 622.096,367.687Z" style="fill:rgb(237,237,237);fill-rule:nonzero;"/>
        </g>
        <g transform="matrix(0.333333,0,0,0.333333,66.6667,40)">
            <path d="M542.996,445.475C538.582,445.475 534.246,443.67 531.097,440.522L503.225,412.65C502.083,411.518 501.443,409.973 501.448,408.365C501.448,406.752 502.085,405.232 503.233,404.088L518.503,388.818C520.853,386.475 524.712,386.475 527.062,388.818L543,404.787L601.088,346.699C603.427,344.362 607.273,344.362 609.612,346.699L624.925,362.012C626.053,363.14 626.684,364.675 626.675,366.27C626.685,367.867 626.054,369.403 624.925,370.532L554.93,440.523C551.684,443.725 547.453,445.475 542.996,445.475ZM510.26,408.372L536.753,434.865C540.093,438.201 545.878,438.213 549.293,434.845L617.87,366.268L605.35,353.748L545.824,413.274C545.074,414.024 544.056,414.446 542.996,414.446L542.992,414.446C541.931,414.446 540.912,414.022 540.164,413.27L522.781,395.851L510.26,408.372ZM508.885,409.747L508.881,409.751C508.885,409.751 508.885,409.747 508.885,409.747ZM622.096,367.703L622.135,367.703L622.096,367.703Z" style="fill:rgb(51,51,51);fill-rule:nonzero;"/>
        </g>
        <g transform="matrix(0.349797,0,0,0.333333,41.4611,66.6667)">
            <g transform="matrix(36,0,0,36,126.515,665.803)">
                <path d="M0.077,-0L0.077,-0.714L0.27,-0.714L0.27,-0.156L0.545,-0.156L0.545,-0L0.077,-0Z" style="fill:white;fill-rule:nonzero;"/>
            </g>
            <g transform="matrix(36,0,0,36,147.468,665.803)">
                <path d="M0.594,-0.278C0.594,-0.232 0.588,-0.191 0.575,-0.155C0.563,-0.119 0.544,-0.089 0.52,-0.064C0.496,-0.04 0.467,-0.022 0.433,-0.009C0.398,0.003 0.36,0.01 0.317,0.01C0.277,0.01 0.24,0.003 0.207,-0.009C0.173,-0.022 0.144,-0.04 0.12,-0.064C0.095,-0.089 0.076,-0.119 0.062,-0.155C0.049,-0.191 0.042,-0.232 0.042,-0.278C0.042,-0.339 0.053,-0.391 0.075,-0.433C0.098,-0.475 0.13,-0.508 0.171,-0.53C0.213,-0.552 0.262,-0.563 0.32,-0.563C0.373,-0.563 0.42,-0.552 0.461,-0.53C0.503,-0.508 0.535,-0.475 0.559,-0.433C0.582,-0.391 0.594,-0.339 0.594,-0.278ZM0.236,-0.278C0.236,-0.246 0.239,-0.22 0.244,-0.198C0.25,-0.176 0.259,-0.16 0.271,-0.149C0.283,-0.137 0.299,-0.132 0.319,-0.132C0.339,-0.132 0.354,-0.137 0.366,-0.149C0.378,-0.16 0.386,-0.176 0.392,-0.198C0.397,-0.22 0.4,-0.246 0.4,-0.278C0.4,-0.309 0.397,-0.336 0.392,-0.357C0.386,-0.378 0.378,-0.394 0.366,-0.405C0.354,-0.416 0.338,-0.421 0.318,-0.421C0.289,-0.421 0.268,-0.409 0.255,-0.385C0.242,-0.361 0.236,-0.325 0.236,-0.278Z" style="fill:white;fill-rule:nonzero;"/>
            </g>
            <g transform="matrix(36,0,0,36,170.408,665.803)">
                <path d="M0.336,-0.563C0.406,-0.563 0.461,-0.546 0.5,-0.511C0.539,-0.476 0.559,-0.427 0.559,-0.363L0.559,-0L0.427,-0L0.39,-0.073L0.386,-0.073C0.371,-0.054 0.355,-0.038 0.338,-0.026C0.322,-0.013 0.303,-0.004 0.282,0.001C0.261,0.007 0.235,0.01 0.204,0.01C0.172,0.01 0.144,0.003 0.118,-0.01C0.093,-0.023 0.073,-0.042 0.058,-0.069C0.043,-0.095 0.036,-0.129 0.036,-0.169C0.036,-0.228 0.057,-0.272 0.098,-0.301C0.139,-0.329 0.198,-0.346 0.276,-0.349L0.368,-0.352L0.368,-0.36C0.368,-0.385 0.362,-0.402 0.35,-0.413C0.338,-0.423 0.321,-0.428 0.301,-0.428C0.279,-0.428 0.255,-0.424 0.228,-0.417C0.201,-0.409 0.174,-0.399 0.147,-0.387L0.092,-0.513C0.124,-0.529 0.16,-0.542 0.2,-0.55C0.241,-0.559 0.286,-0.563 0.336,-0.563ZM0.369,-0.247L0.325,-0.245C0.29,-0.244 0.265,-0.238 0.251,-0.227C0.237,-0.216 0.23,-0.2 0.23,-0.18C0.23,-0.161 0.235,-0.147 0.245,-0.138C0.255,-0.129 0.269,-0.125 0.285,-0.125C0.308,-0.125 0.328,-0.132 0.344,-0.147C0.361,-0.162 0.369,-0.181 0.369,-0.204L0.369,-0.247Z" style="fill:white;fill-rule:nonzero;"/>
            </g>
            <g transform="matrix(36,0,0,36,192.837,665.803)">
                <path d="M0.238,0.01C0.181,0.01 0.134,-0.014 0.097,-0.063C0.06,-0.111 0.042,-0.182 0.042,-0.276C0.042,-0.37 0.061,-0.442 0.099,-0.49C0.136,-0.539 0.185,-0.563 0.245,-0.563C0.27,-0.563 0.291,-0.559 0.309,-0.552C0.327,-0.545 0.343,-0.535 0.356,-0.523C0.369,-0.511 0.38,-0.497 0.39,-0.482L0.394,-0.482C0.392,-0.496 0.39,-0.515 0.388,-0.54C0.386,-0.564 0.385,-0.588 0.385,-0.612L0.385,-0.76L0.577,-0.76L0.577,-0L0.433,-0L0.392,-0.07L0.385,-0.07C0.376,-0.055 0.365,-0.042 0.352,-0.03C0.339,-0.018 0.323,-0.008 0.304,-0.001C0.285,0.006 0.263,0.01 0.238,0.01ZM0.316,-0.141C0.347,-0.141 0.368,-0.151 0.381,-0.17C0.393,-0.19 0.4,-0.219 0.401,-0.259L0.401,-0.274C0.401,-0.318 0.395,-0.351 0.383,-0.374C0.37,-0.398 0.347,-0.409 0.314,-0.409C0.291,-0.409 0.272,-0.398 0.257,-0.376C0.242,-0.354 0.235,-0.319 0.235,-0.273C0.235,-0.227 0.242,-0.194 0.258,-0.173C0.273,-0.152 0.292,-0.141 0.316,-0.141Z" style="fill:white;fill-rule:nonzero;"/>
            </g>
            <g transform="matrix(36,0,0,36,215.988,665.803)">
                <path d="M0.258,-0.553L0.258,-0L0.067,-0L0.067,-0.553L0.258,-0.553ZM0.163,-0.776C0.19,-0.776 0.214,-0.77 0.235,-0.759C0.255,-0.747 0.265,-0.725 0.265,-0.691C0.265,-0.658 0.255,-0.636 0.235,-0.624C0.214,-0.613 0.19,-0.607 0.163,-0.607C0.135,-0.607 0.111,-0.613 0.092,-0.624C0.072,-0.636 0.062,-0.658 0.062,-0.691C0.062,-0.725 0.072,-0.747 0.092,-0.759C0.111,-0.77 0.135,-0.776 0.163,-0.776Z" style="fill:white;fill-rule:nonzero;"/>
            </g>
            <g transform="matrix(36,0,0,36,227.695,665.803)">
                <path d="M0.412,-0.563C0.469,-0.563 0.516,-0.547 0.552,-0.515C0.588,-0.482 0.606,-0.431 0.606,-0.36L0.606,-0L0.415,-0L0.415,-0.302C0.415,-0.339 0.41,-0.366 0.399,-0.385C0.389,-0.404 0.372,-0.413 0.348,-0.413C0.312,-0.413 0.288,-0.398 0.275,-0.369C0.263,-0.339 0.257,-0.297 0.257,-0.242L0.257,-0L0.066,-0L0.066,-0.553L0.21,-0.553L0.236,-0.48L0.243,-0.48C0.255,-0.498 0.269,-0.513 0.285,-0.525C0.301,-0.537 0.32,-0.547 0.341,-0.553C0.362,-0.56 0.386,-0.563 0.412,-0.563Z" style="fill:white;fill-rule:nonzero;"/>
            </g>
            <g transform="matrix(36,0,0,36,251.812,665.803)">
                <path d="M0.255,0.24C0.176,0.24 0.116,0.227 0.073,0.201C0.031,0.175 0.01,0.137 0.01,0.088C0.01,0.055 0.02,0.028 0.041,0.006C0.061,-0.015 0.092,-0.031 0.133,-0.04C0.116,-0.047 0.101,-0.059 0.089,-0.075C0.076,-0.091 0.07,-0.106 0.07,-0.122C0.07,-0.139 0.075,-0.155 0.084,-0.168C0.093,-0.181 0.113,-0.197 0.143,-0.215C0.114,-0.228 0.092,-0.247 0.075,-0.274C0.059,-0.301 0.051,-0.334 0.051,-0.373C0.051,-0.413 0.06,-0.447 0.078,-0.476C0.097,-0.504 0.124,-0.526 0.159,-0.541C0.194,-0.556 0.237,-0.563 0.288,-0.563C0.295,-0.563 0.305,-0.562 0.319,-0.561C0.333,-0.56 0.347,-0.559 0.362,-0.557C0.376,-0.556 0.387,-0.555 0.395,-0.553L0.588,-0.553L0.588,-0.461L0.512,-0.433C0.517,-0.424 0.521,-0.413 0.524,-0.402C0.527,-0.391 0.528,-0.38 0.528,-0.367C0.528,-0.308 0.507,-0.261 0.465,-0.229C0.423,-0.196 0.361,-0.179 0.278,-0.179C0.257,-0.179 0.241,-0.181 0.229,-0.183C0.227,-0.179 0.225,-0.175 0.224,-0.171C0.223,-0.167 0.222,-0.163 0.222,-0.159C0.222,-0.152 0.227,-0.146 0.236,-0.141C0.245,-0.137 0.255,-0.134 0.268,-0.132C0.281,-0.131 0.293,-0.13 0.305,-0.13L0.397,-0.13C0.459,-0.13 0.506,-0.117 0.537,-0.091C0.568,-0.065 0.583,-0.026 0.583,0.027C0.583,0.094 0.554,0.147 0.497,0.184C0.439,0.222 0.359,0.24 0.255,0.24ZM0.264,0.121C0.287,0.121 0.311,0.119 0.334,0.115C0.357,0.111 0.377,0.104 0.393,0.095C0.409,0.086 0.417,0.074 0.417,0.059C0.417,0.048 0.412,0.039 0.403,0.033C0.393,0.028 0.381,0.024 0.366,0.022C0.351,0.02 0.335,0.019 0.319,0.019L0.245,0.019C0.231,0.019 0.219,0.021 0.207,0.026C0.196,0.03 0.187,0.036 0.181,0.043C0.174,0.051 0.171,0.059 0.171,0.069C0.171,0.084 0.179,0.097 0.196,0.107C0.213,0.116 0.236,0.121 0.264,0.121ZM0.29,-0.287C0.308,-0.287 0.322,-0.294 0.332,-0.308C0.342,-0.322 0.347,-0.343 0.347,-0.371C0.347,-0.4 0.342,-0.421 0.333,-0.436C0.324,-0.45 0.309,-0.457 0.29,-0.457C0.27,-0.457 0.255,-0.45 0.246,-0.436C0.236,-0.422 0.231,-0.4 0.231,-0.372C0.231,-0.344 0.236,-0.323 0.246,-0.308C0.255,-0.294 0.27,-0.287 0.29,-0.287Z" style="fill:white;fill-rule:nonzero;"/>
            </g>
            <g transform="matrix(36,0,0,36,282.978,665.803)">
                <path d="M0.404,-0.563C0.465,-0.563 0.513,-0.538 0.548,-0.49C0.583,-0.441 0.6,-0.37 0.6,-0.278C0.6,-0.215 0.591,-0.162 0.574,-0.119C0.556,-0.077 0.532,-0.044 0.502,-0.023C0.471,-0.001 0.437,0.01 0.398,0.01C0.372,0.01 0.35,0.007 0.332,-0C0.314,-0.007 0.299,-0.015 0.287,-0.024C0.275,-0.034 0.265,-0.044 0.257,-0.054L0.251,-0.054C0.253,-0.042 0.254,-0.028 0.255,-0.013C0.256,0.001 0.257,0.019 0.257,0.038L0.257,0.24L0.066,0.24L0.066,-0.553L0.221,-0.553L0.248,-0.483L0.257,-0.483C0.266,-0.497 0.277,-0.51 0.29,-0.523C0.303,-0.535 0.319,-0.545 0.338,-0.552C0.356,-0.559 0.378,-0.563 0.404,-0.563ZM0.332,-0.413C0.313,-0.413 0.299,-0.409 0.288,-0.4C0.277,-0.391 0.27,-0.378 0.265,-0.36C0.26,-0.342 0.257,-0.32 0.257,-0.294L0.257,-0.279C0.257,-0.25 0.259,-0.225 0.264,-0.205C0.268,-0.185 0.276,-0.17 0.287,-0.159C0.298,-0.149 0.313,-0.144 0.333,-0.144C0.349,-0.144 0.362,-0.149 0.373,-0.158C0.384,-0.167 0.392,-0.181 0.397,-0.201C0.403,-0.221 0.406,-0.247 0.406,-0.28C0.406,-0.328 0.399,-0.363 0.387,-0.383C0.374,-0.403 0.356,-0.413 0.332,-0.413Z" style="fill:white;fill-rule:nonzero;"/>
            </g>
            <g transform="matrix(36,0,0,36,306.128,665.803)">
                <path d="M0.336,-0.563C0.406,-0.563 0.461,-0.546 0.5,-0.511C0.539,-0.476 0.559,-0.427 0.559,-0.363L0.559,-0L0.427,-0L0.39,-0.073L0.386,-0.073C0.371,-0.054 0.355,-0.038 0.338,-0.026C0.322,-0.013 0.303,-0.004 0.282,0.001C0.261,0.007 0.235,0.01 0.204,0.01C0.172,0.01 0.144,0.003 0.118,-0.01C0.093,-0.023 0.073,-0.042 0.058,-0.069C0.043,-0.095 0.036,-0.129 0.036,-0.169C0.036,-0.228 0.057,-0.272 0.098,-0.301C0.139,-0.329 0.198,-0.346 0.276,-0.349L0.368,-0.352L0.368,-0.36C0.368,-0.385 0.362,-0.402 0.35,-0.413C0.338,-0.423 0.321,-0.428 0.301,-0.428C0.279,-0.428 0.255,-0.424 0.228,-0.417C0.201,-0.409 0.174,-0.399 0.147,-0.387L0.092,-0.513C0.124,-0.529 0.16,-0.542 0.2,-0.55C0.241,-0.559 0.286,-0.563 0.336,-0.563ZM0.369,-0.247L0.325,-0.245C0.29,-0.244 0.265,-0.238 0.251,-0.227C0.237,-0.216 0.23,-0.2 0.23,-0.18C0.23,-0.161 0.235,-0.147 0.245,-0.138C0.255,-0.129 0.269,-0.125 0.285,-0.125C0.308,-0.125 0.328,-0.132 0.344,-0.147C0.361,-0.162 0.369,-0.181 0.369,-0.204L0.369,-0.247Z" style="fill:white;fill-rule:nonzero;"/>
            </g>
            <g transform="matrix(36,0,0,36,328.558,665.803)">
                <path d="M0.255,0.24C0.176,0.24 0.116,0.227 0.073,0.201C0.031,0.175 0.01,0.137 0.01,0.088C0.01,0.055 0.02,0.028 0.041,0.006C0.061,-0.015 0.092,-0.031 0.133,-0.04C0.116,-0.047 0.101,-0.059 0.089,-0.075C0.076,-0.091 0.07,-0.106 0.07,-0.122C0.07,-0.139 0.075,-0.155 0.084,-0.168C0.093,-0.181 0.113,-0.197 0.143,-0.215C0.114,-0.228 0.092,-0.247 0.075,-0.274C0.059,-0.301 0.051,-0.334 0.051,-0.373C0.051,-0.413 0.06,-0.447 0.078,-0.476C0.097,-0.504 0.124,-0.526 0.159,-0.541C0.194,-0.556 0.237,-0.563 0.288,-0.563C0.295,-0.563 0.305,-0.562 0.319,-0.561C0.333,-0.56 0.347,-0.559 0.362,-0.557C0.376,-0.556 0.387,-0.555 0.395,-0.553L0.588,-0.553L0.588,-0.461L0.512,-0.433C0.517,-0.424 0.521,-0.413 0.524,-0.402C0.527,-0.391 0.528,-0.38 0.528,-0.367C0.528,-0.308 0.507,-0.261 0.465,-0.229C0.423,-0.196 0.361,-0.179 0.278,-0.179C0.257,-0.179 0.241,-0.181 0.229,-0.183C0.227,-0.179 0.225,-0.175 0.224,-0.171C0.223,-0.167 0.222,-0.163 0.222,-0.159C0.222,-0.152 0.227,-0.146 0.236,-0.141C0.245,-0.137 0.255,-0.134 0.268,-0.132C0.281,-0.131 0.293,-0.13 0.305,-0.13L0.397,-0.13C0.459,-0.13 0.506,-0.117 0.537,-0.091C0.568,-0.065 0.583,-0.026 0.583,0.027C0.583,0.094 0.554,0.147 0.497,0.184C0.439,0.222 0.359,0.24 0.255,0.24ZM0.264,0.121C0.287,0.121 0.311,0.119 0.334,0.115C0.357,0.111 0.377,0.104 0.393,0.095C0.409,0.086 0.417,0.074 0.417,0.059C0.417,0.048 0.412,0.039 0.403,0.033C0.393,0.028 0.381,0.024 0.366,0.022C0.351,0.02 0.335,0.019 0.319,0.019L0.245,0.019C0.231,0.019 0.219,0.021 0.207,0.026C0.196,0.03 0.187,0.036 0.181,0.043C0.174,0.051 0.171,0.059 0.171,0.069C0.171,0.084 0.179,0.097 0.196,0.107C0.213,0.116 0.236,0.121 0.264,0.121ZM0.29,-0.287C0.308,-0.287 0.322,-0.294 0.332,-0.308C0.342,-0.322 0.347,-0.343 0.347,-0.371C0.347,-0.4 0.342,-0.421 0.333,-0.436C0.324,-0.45 0.309,-0.457 0.29,-0.457C0.27,-0.457 0.255,-0.45 0.246,-0.436C0.236,-0.422 0.231,-0.4 0.231,-0.372C0.231,-0.344 0.236,-0.323 0.246,-0.308C0.255,-0.294 0.27,-0.287 0.29,-0.287Z" style="fill:white;fill-rule:nonzero;"/>
            </g>
            <g transform="matrix(36,0,0,36,350.372,665.803)">
                <path d="M0.315,-0.563C0.369,-0.563 0.415,-0.554 0.454,-0.535C0.493,-0.516 0.523,-0.488 0.544,-0.451C0.566,-0.413 0.576,-0.366 0.576,-0.31L0.576,-0.225L0.235,-0.225C0.236,-0.196 0.247,-0.172 0.267,-0.154C0.287,-0.135 0.317,-0.126 0.356,-0.126C0.39,-0.126 0.422,-0.129 0.451,-0.136C0.48,-0.143 0.509,-0.154 0.54,-0.168L0.54,-0.031C0.513,-0.017 0.484,-0.007 0.453,-0C0.421,0.007 0.381,0.01 0.333,0.01C0.277,0.01 0.228,-0 0.184,-0.02C0.14,-0.04 0.105,-0.071 0.08,-0.112C0.055,-0.154 0.042,-0.208 0.042,-0.273C0.042,-0.339 0.053,-0.394 0.076,-0.437C0.099,-0.48 0.131,-0.511 0.172,-0.532C0.213,-0.553 0.261,-0.563 0.315,-0.563ZM0.322,-0.433C0.299,-0.433 0.281,-0.426 0.265,-0.412C0.25,-0.398 0.241,-0.375 0.239,-0.345L0.403,-0.345C0.403,-0.361 0.399,-0.376 0.393,-0.39C0.387,-0.403 0.378,-0.414 0.366,-0.421C0.354,-0.429 0.339,-0.433 0.322,-0.433Z" style="fill:white;fill-rule:nonzero;"/>
            </g>
            <g transform="matrix(36,0,0,36,381.978,665.803)">
                <path d="M0.318,0.01C0.262,0.01 0.213,-0 0.172,-0.02C0.131,-0.04 0.099,-0.071 0.076,-0.113C0.053,-0.155 0.042,-0.208 0.042,-0.274C0.042,-0.341 0.055,-0.396 0.08,-0.438C0.105,-0.481 0.14,-0.513 0.184,-0.533C0.228,-0.553 0.277,-0.563 0.333,-0.563C0.367,-0.563 0.399,-0.559 0.429,-0.552C0.46,-0.544 0.488,-0.534 0.514,-0.521L0.458,-0.38C0.435,-0.39 0.414,-0.398 0.394,-0.404C0.375,-0.41 0.354,-0.413 0.333,-0.413C0.314,-0.413 0.297,-0.408 0.282,-0.398C0.268,-0.388 0.256,-0.373 0.248,-0.352C0.24,-0.332 0.236,-0.306 0.236,-0.275C0.236,-0.243 0.24,-0.217 0.248,-0.198C0.257,-0.178 0.268,-0.164 0.283,-0.155C0.298,-0.146 0.315,-0.142 0.334,-0.142C0.362,-0.142 0.389,-0.146 0.417,-0.155C0.444,-0.164 0.47,-0.176 0.495,-0.191L0.495,-0.039C0.472,-0.024 0.447,-0.012 0.418,-0.003C0.389,0.005 0.356,0.01 0.318,0.01Z" style="fill:white;fill-rule:nonzero;"/>
            </g>
            <g transform="matrix(36,0,0,36,401.384,665.803)">
                <path d="M0.336,-0.563C0.406,-0.563 0.461,-0.546 0.5,-0.511C0.539,-0.476 0.559,-0.427 0.559,-0.363L0.559,-0L0.427,-0L0.39,-0.073L0.386,-0.073C0.371,-0.054 0.355,-0.038 0.338,-0.026C0.322,-0.013 0.303,-0.004 0.282,0.001C0.261,0.007 0.235,0.01 0.204,0.01C0.172,0.01 0.144,0.003 0.118,-0.01C0.093,-0.023 0.073,-0.042 0.058,-0.069C0.043,-0.095 0.036,-0.129 0.036,-0.169C0.036,-0.228 0.057,-0.272 0.098,-0.301C0.139,-0.329 0.198,-0.346 0.276,-0.349L0.368,-0.352L0.368,-0.36C0.368,-0.385 0.362,-0.402 0.35,-0.413C0.338,-0.423 0.321,-0.428 0.301,-0.428C0.279,-0.428 0.255,-0.424 0.228,-0.417C0.201,-0.409 0.174,-0.399 0.147,-0.387L0.092,-0.513C0.124,-0.529 0.16,-0.542 0.2,-0.55C0.241,-0.559 0.286,-0.563 0.336,-0.563ZM0.369,-0.247L0.325,-0.245C0.29,-0.244 0.265,-0.238 0.251,-0.227C0.237,-0.216 0.23,-0.2 0.23,-0.18C0.23,-0.161 0.235,-0.147 0.245,-0.138C0.255,-0.129 0.269,-0.125 0.285,-0.125C0.308,-0.125 0.328,-0.132 0.344,-0.147C0.361,-0.162 0.369,-0.181 0.369,-0.204L0.369,-0.247Z" style="fill:white;fill-rule:nonzero;"/>
            </g>
            <g transform="matrix(36,0,0,36,423.814,665.803)">
                <path d="M0.337,-0.141C0.354,-0.141 0.37,-0.143 0.384,-0.146C0.399,-0.15 0.414,-0.155 0.429,-0.16L0.429,-0.021C0.408,-0.012 0.386,-0.004 0.363,0.001C0.34,0.007 0.31,0.01 0.274,0.01C0.238,0.01 0.207,0.004 0.179,-0.007C0.152,-0.018 0.131,-0.038 0.115,-0.066C0.1,-0.094 0.093,-0.132 0.093,-0.182L0.093,-0.41L0.026,-0.41L0.026,-0.488L0.111,-0.548L0.16,-0.664L0.285,-0.664L0.285,-0.553L0.421,-0.553L0.421,-0.41L0.285,-0.41L0.285,-0.195C0.285,-0.177 0.29,-0.163 0.299,-0.155C0.308,-0.146 0.321,-0.141 0.337,-0.141Z" style="fill:white;fill-rule:nonzero;"/>
            </g>
            <g transform="matrix(36,0,0,36,440.372,665.803)">
                <path d="M0.336,-0.563C0.406,-0.563 0.461,-0.546 0.5,-0.511C0.539,-0.476 0.559,-0.427 0.559,-0.363L0.559,-0L0.427,-0L0.39,-0.073L0.386,-0.073C0.371,-0.054 0.355,-0.038 0.338,-0.026C0.322,-0.013 0.303,-0.004 0.282,0.001C0.261,0.007 0.235,0.01 0.204,0.01C0.172,0.01 0.144,0.003 0.118,-0.01C0.093,-0.023 0.073,-0.042 0.058,-0.069C0.043,-0.095 0.036,-0.129 0.036,-0.169C0.036,-0.228 0.057,-0.272 0.098,-0.301C0.139,-0.329 0.198,-0.346 0.276,-0.349L0.368,-0.352L0.368,-0.36C0.368,-0.385 0.362,-0.402 0.35,-0.413C0.338,-0.423 0.321,-0.428 0.301,-0.428C0.279,-0.428 0.255,-0.424 0.228,-0.417C0.201,-0.409 0.174,-0.399 0.147,-0.387L0.092,-0.513C0.124,-0.529 0.16,-0.542 0.2,-0.55C0.241,-0.559 0.286,-0.563 0.336,-0.563ZM0.369,-0.247L0.325,-0.245C0.29,-0.244 0.265,-0.238 0.251,-0.227C0.237,-0.216 0.23,-0.2 0.23,-0.18C0.23,-0.161 0.235,-0.147 0.245,-0.138C0.255,-0.129 0.269,-0.125 0.285,-0.125C0.308,-0.125 0.328,-0.132 0.344,-0.147C0.361,-0.162 0.369,-0.181 0.369,-0.204L0.369,-0.247Z" style="fill:white;fill-rule:nonzero;"/>
            </g>
            <g transform="matrix(36,0,0,36,462.802,665.803)">
                <rect x="0.066" y="-0.76" width="0.191" height="0.76" style="fill:white;fill-rule:nonzero;"/>
            </g>
            <g transform="matrix(36,0,0,36,474.439,665.803)">
                <path d="M0.594,-0.278C0.594,-0.232 0.588,-0.191 0.575,-0.155C0.563,-0.119 0.544,-0.089 0.52,-0.064C0.496,-0.04 0.467,-0.022 0.433,-0.009C0.398,0.003 0.36,0.01 0.317,0.01C0.277,0.01 0.24,0.003 0.207,-0.009C0.173,-0.022 0.144,-0.04 0.12,-0.064C0.095,-0.089 0.076,-0.119 0.062,-0.155C0.049,-0.191 0.042,-0.232 0.042,-0.278C0.042,-0.339 0.053,-0.391 0.075,-0.433C0.098,-0.475 0.13,-0.508 0.171,-0.53C0.213,-0.552 0.262,-0.563 0.32,-0.563C0.373,-0.563 0.42,-0.552 0.461,-0.53C0.503,-0.508 0.535,-0.475 0.559,-0.433C0.582,-0.391 0.594,-0.339 0.594,-0.278ZM0.236,-0.278C0.236,-0.246 0.239,-0.22 0.244,-0.198C0.25,-0.176 0.259,-0.16 0.271,-0.149C0.283,-0.137 0.299,-0.132 0.319,-0.132C0.339,-0.132 0.354,-0.137 0.366,-0.149C0.378,-0.16 0.386,-0.176 0.392,-0.198C0.397,-0.22 0.4,-0.246 0.4,-0.278C0.4,-0.309 0.397,-0.336 0.392,-0.357C0.386,-0.378 0.378,-0.394 0.366,-0.405C0.354,-0.416 0.338,-0.421 0.318,-0.421C0.289,-0.421 0.268,-0.409 0.255,-0.385C0.242,-0.361 0.236,-0.325 0.236,-0.278Z" style="fill:white;fill-rule:nonzero;"/>
            </g>
            <g transform="matrix(36,0,0,36,497.378,665.803)">
                <path d="M0.255,0.24C0.176,0.24 0.116,0.227 0.073,0.201C0.031,0.175 0.01,0.137 0.01,0.088C0.01,0.055 0.02,0.028 0.041,0.006C0.061,-0.015 0.092,-0.031 0.133,-0.04C0.116,-0.047 0.101,-0.059 0.089,-0.075C0.076,-0.091 0.07,-0.106 0.07,-0.122C0.07,-0.139 0.075,-0.155 0.084,-0.168C0.093,-0.181 0.113,-0.197 0.143,-0.215C0.114,-0.228 0.092,-0.247 0.075,-0.274C0.059,-0.301 0.051,-0.334 0.051,-0.373C0.051,-0.413 0.06,-0.447 0.078,-0.476C0.097,-0.504 0.124,-0.526 0.159,-0.541C0.194,-0.556 0.237,-0.563 0.288,-0.563C0.295,-0.563 0.305,-0.562 0.319,-0.561C0.333,-0.56 0.347,-0.559 0.362,-0.557C0.376,-0.556 0.387,-0.555 0.395,-0.553L0.588,-0.553L0.588,-0.461L0.512,-0.433C0.517,-0.424 0.521,-0.413 0.524,-0.402C0.527,-0.391 0.528,-0.38 0.528,-0.367C0.528,-0.308 0.507,-0.261 0.465,-0.229C0.423,-0.196 0.361,-0.179 0.278,-0.179C0.257,-0.179 0.241,-0.181 0.229,-0.183C0.227,-0.179 0.225,-0.175 0.224,-0.171C0.223,-0.167 0.222,-0.163 0.222,-0.159C0.222,-0.152 0.227,-0.146 0.236,-0.141C0.245,-0.137 0.255,-0.134 0.268,-0.132C0.281,-0.131 0.293,-0.13 0.305,-0.13L0.397,-0.13C0.459,-0.13 0.506,-0.117 0.537,-0.091C0.568,-0.065 0.583,-0.026 0.583,0.027C0.583,0.094 0.554,0.147 0.497,0.184C0.439,0.222 0.359,0.24 0.255,0.24ZM0.264,0.121C0.287,0.121 0.311,0.119 0.334,0.115C0.357,0.111 0.377,0.104 0.393,0.095C0.409,0.086 0.417,0.074 0.417,0.059C0.417,0.048 0.412,0.039 0.403,0.033C0.393,0.028 0.381,0.024 0.366,0.022C0.351,0.02 0.335,0.019 0.319,0.019L0.245,0.019C0.231,0.019 0.219,0.021 0.207,0.026C0.196,0.03 0.187,0.036 0.181,0.043C0.174,0.051 0.171,0.059 0.171,0.069C0.171,0.084 0.179,0.097 0.196,0.107C0.213,0.116 0.236,0.121 0.264,0.121ZM0.29,-0.287C0.308,-0.287 0.322,-0.294 0.332,-0.308C0.342,-0.322 0.347,-0.343 0.347,-0.371C0.347,-0.4 0.342,-0.421 0.333,-0.436C0.324,-0.45 0.309,-0.457 0.29,-0.457C0.27,-0.457 0.255,-0.45 0.246,-0.436C0.236,-0.422 0.231,-0.4 0.231,-0.372C0.231,-0.344 0.236,-0.323 0.246,-0.308C0.255,-0.294 0.27,-0.287 0.29,-0.287Z" style="fill:white;fill-rule:nonzero;"/>
            </g>
            <g transform="matrix(36,0,0,36,528.544,665.803)">
                <path d="M0.404,-0.41L0.286,-0.41L0.286,-0L0.095,-0L0.095,-0.41L0.022,-0.41L0.022,-0.504L0.099,-0.551L0.099,-0.56C0.099,-0.608 0.105,-0.647 0.118,-0.677C0.131,-0.707 0.151,-0.729 0.179,-0.744C0.206,-0.758 0.243,-0.765 0.287,-0.765C0.316,-0.765 0.342,-0.763 0.365,-0.758C0.388,-0.754 0.413,-0.747 0.438,-0.739L0.397,-0.615C0.388,-0.618 0.377,-0.62 0.365,-0.622C0.354,-0.624 0.341,-0.625 0.328,-0.625C0.313,-0.625 0.303,-0.621 0.296,-0.612C0.289,-0.603 0.286,-0.588 0.286,-0.568L0.286,-0.553L0.404,-0.553L0.404,-0.41Z" style="fill:white;fill-rule:nonzero;"/>
            </g>
            <g transform="matrix(36,0,0,36,543.415,665.803)">
                <path d="M0.4,-0.563C0.41,-0.563 0.421,-0.562 0.433,-0.561C0.444,-0.559 0.452,-0.558 0.458,-0.557L0.441,-0.377C0.435,-0.379 0.427,-0.38 0.417,-0.381C0.407,-0.382 0.394,-0.383 0.376,-0.383C0.364,-0.383 0.351,-0.382 0.337,-0.379C0.324,-0.377 0.311,-0.372 0.299,-0.365C0.286,-0.358 0.276,-0.347 0.269,-0.332C0.261,-0.317 0.257,-0.297 0.257,-0.272L0.257,-0L0.066,-0L0.066,-0.553L0.208,-0.553L0.238,-0.465L0.247,-0.465C0.257,-0.483 0.27,-0.5 0.286,-0.514C0.302,-0.529 0.319,-0.541 0.339,-0.55C0.359,-0.559 0.379,-0.563 0.4,-0.563Z" style="fill:white;fill-rule:nonzero;"/>
            </g>
            <g transform="matrix(36,0,0,36,560.308,665.803)">
                <path d="M0.594,-0.278C0.594,-0.232 0.588,-0.191 0.575,-0.155C0.563,-0.119 0.544,-0.089 0.52,-0.064C0.496,-0.04 0.467,-0.022 0.433,-0.009C0.398,0.003 0.36,0.01 0.317,0.01C0.277,0.01 0.24,0.003 0.207,-0.009C0.173,-0.022 0.144,-0.04 0.12,-0.064C0.095,-0.089 0.076,-0.119 0.062,-0.155C0.049,-0.191 0.042,-0.232 0.042,-0.278C0.042,-0.339 0.053,-0.391 0.075,-0.433C0.098,-0.475 0.13,-0.508 0.171,-0.53C0.213,-0.552 0.262,-0.563 0.32,-0.563C0.373,-0.563 0.42,-0.552 0.461,-0.53C0.503,-0.508 0.535,-0.475 0.559,-0.433C0.582,-0.391 0.594,-0.339 0.594,-0.278ZM0.236,-0.278C0.236,-0.246 0.239,-0.22 0.244,-0.198C0.25,-0.176 0.259,-0.16 0.271,-0.149C0.283,-0.137 0.299,-0.132 0.319,-0.132C0.339,-0.132 0.354,-0.137 0.366,-0.149C0.378,-0.16 0.386,-0.176 0.392,-0.198C0.397,-0.22 0.4,-0.246 0.4,-0.278C0.4,-0.309 0.397,-0.336 0.392,-0.357C0.386,-0.378 0.378,-0.394 0.366,-0.405C0.354,-0.416 0.338,-0.421 0.318,-0.421C0.289,-0.421 0.268,-0.409 0.255,-0.385C0.242,-0.361 0.236,-0.325 0.236,-0.278Z" style="fill:white;fill-rule:nonzero;"/>
            </g>
            <g transform="matrix(36,0,0,36,583.247,665.803)">
                <path d="M0.741,-0.563C0.804,-0.563 0.853,-0.547 0.886,-0.515C0.919,-0.482 0.936,-0.431 0.936,-0.36L0.936,-0L0.745,-0L0.745,-0.301C0.745,-0.343 0.74,-0.372 0.728,-0.388C0.717,-0.405 0.7,-0.413 0.678,-0.413C0.647,-0.413 0.626,-0.4 0.614,-0.373C0.602,-0.346 0.596,-0.307 0.596,-0.258L0.596,-0L0.405,-0L0.405,-0.301C0.405,-0.327 0.402,-0.349 0.398,-0.365C0.393,-0.382 0.386,-0.394 0.376,-0.402C0.367,-0.409 0.355,-0.413 0.341,-0.413C0.319,-0.413 0.302,-0.406 0.29,-0.393C0.278,-0.38 0.269,-0.361 0.264,-0.335C0.259,-0.31 0.257,-0.279 0.257,-0.242L0.257,-0L0.066,-0L0.066,-0.553L0.21,-0.553L0.238,-0.485L0.243,-0.485C0.253,-0.5 0.266,-0.513 0.281,-0.525C0.296,-0.537 0.315,-0.546 0.336,-0.553C0.358,-0.56 0.382,-0.563 0.409,-0.563C0.45,-0.563 0.483,-0.556 0.51,-0.542C0.536,-0.529 0.558,-0.51 0.574,-0.486L0.58,-0.486C0.598,-0.511 0.62,-0.53 0.648,-0.543C0.676,-0.556 0.707,-0.563 0.741,-0.563Z" style="fill:white;fill-rule:nonzero;"/>
            </g>
            <g transform="matrix(36,0,0,36,628.599,665.803)">
                <path d="M0.477,-0.17C0.477,-0.135 0.469,-0.104 0.454,-0.077C0.438,-0.05 0.413,-0.028 0.379,-0.013C0.344,0.002 0.299,0.01 0.243,0.01C0.204,0.01 0.169,0.008 0.137,0.003C0.106,-0.001 0.075,-0.009 0.043,-0.021L0.043,-0.174C0.078,-0.158 0.113,-0.146 0.149,-0.139C0.186,-0.132 0.214,-0.129 0.235,-0.129C0.256,-0.129 0.272,-0.131 0.282,-0.136C0.292,-0.141 0.297,-0.148 0.297,-0.157C0.297,-0.165 0.294,-0.172 0.287,-0.178C0.28,-0.184 0.268,-0.19 0.251,-0.198C0.234,-0.205 0.21,-0.215 0.179,-0.228C0.149,-0.241 0.123,-0.255 0.103,-0.27C0.082,-0.285 0.067,-0.302 0.057,-0.323C0.047,-0.344 0.042,-0.37 0.042,-0.4C0.042,-0.454 0.063,-0.495 0.104,-0.522C0.146,-0.549 0.201,-0.563 0.27,-0.563C0.306,-0.563 0.341,-0.559 0.373,-0.551C0.405,-0.543 0.439,-0.531 0.473,-0.516L0.421,-0.393C0.394,-0.405 0.366,-0.415 0.338,-0.423C0.31,-0.43 0.288,-0.434 0.271,-0.434C0.256,-0.434 0.244,-0.432 0.236,-0.428C0.228,-0.424 0.224,-0.419 0.224,-0.411C0.224,-0.404 0.227,-0.398 0.233,-0.393C0.238,-0.388 0.249,-0.382 0.265,-0.375C0.281,-0.368 0.304,-0.359 0.335,-0.346C0.367,-0.333 0.394,-0.319 0.415,-0.304C0.436,-0.29 0.451,-0.272 0.462,-0.25C0.472,-0.229 0.477,-0.202 0.477,-0.17Z" style="fill:white;fill-rule:nonzero;"/>
            </g>
            <g transform="matrix(36,0,0,36,647.214,665.803)">
                <path d="M0.315,-0.563C0.369,-0.563 0.415,-0.554 0.454,-0.535C0.493,-0.516 0.523,-0.488 0.544,-0.451C0.566,-0.413 0.576,-0.366 0.576,-0.31L0.576,-0.225L0.235,-0.225C0.236,-0.196 0.247,-0.172 0.267,-0.154C0.287,-0.135 0.317,-0.126 0.356,-0.126C0.39,-0.126 0.422,-0.129 0.451,-0.136C0.48,-0.143 0.509,-0.154 0.54,-0.168L0.54,-0.031C0.513,-0.017 0.484,-0.007 0.453,-0C0.421,0.007 0.381,0.01 0.333,0.01C0.277,0.01 0.228,-0 0.184,-0.02C0.14,-0.04 0.105,-0.071 0.08,-0.112C0.055,-0.154 0.042,-0.208 0.042,-0.273C0.042,-0.339 0.053,-0.394 0.076,-0.437C0.099,-0.48 0.131,-0.511 0.172,-0.532C0.213,-0.553 0.261,-0.563 0.315,-0.563ZM0.322,-0.433C0.299,-0.433 0.281,-0.426 0.265,-0.412C0.25,-0.398 0.241,-0.375 0.239,-0.345L0.403,-0.345C0.403,-0.361 0.399,-0.376 0.393,-0.39C0.387,-0.403 0.378,-0.414 0.366,-0.421C0.354,-0.429 0.339,-0.433 0.322,-0.433Z" style="fill:white;fill-rule:nonzero;"/>
            </g>
            <g transform="matrix(36,0,0,36,669.468,665.803)">
                <path d="M0.4,-0.563C0.41,-0.563 0.421,-0.562 0.433,-0.561C0.444,-0.559 0.452,-0.558 0.458,-0.557L0.441,-0.377C0.435,-0.379 0.427,-0.38 0.417,-0.381C0.407,-0.382 0.394,-0.383 0.376,-0.383C0.364,-0.383 0.351,-0.382 0.337,-0.379C0.324,-0.377 0.311,-0.372 0.299,-0.365C0.286,-0.358 0.276,-0.347 0.269,-0.332C0.261,-0.317 0.257,-0.297 0.257,-0.272L0.257,-0L0.066,-0L0.066,-0.553L0.208,-0.553L0.238,-0.465L0.247,-0.465C0.257,-0.483 0.27,-0.5 0.286,-0.514C0.302,-0.529 0.319,-0.541 0.339,-0.55C0.359,-0.559 0.379,-0.563 0.4,-0.563Z" style="fill:white;fill-rule:nonzero;"/>
            </g>
            <g transform="matrix(36,0,0,36,686.361,665.803)">
                <path d="M0.211,-0L0,-0.553L0.199,-0.553L0.293,-0.226C0.294,-0.223 0.296,-0.216 0.298,-0.204C0.301,-0.192 0.302,-0.18 0.302,-0.17L0.305,-0.17C0.305,-0.181 0.306,-0.192 0.309,-0.202C0.311,-0.212 0.313,-0.22 0.314,-0.225L0.412,-0.553L0.611,-0.553L0.4,-0L0.211,-0Z" style="fill:white;fill-rule:nonzero;"/>
            </g>
            <g transform="matrix(36,0,0,36,708.351,665.803)">
                <path d="M0.315,-0.563C0.369,-0.563 0.415,-0.554 0.454,-0.535C0.493,-0.516 0.523,-0.488 0.544,-0.451C0.566,-0.413 0.576,-0.366 0.576,-0.31L0.576,-0.225L0.235,-0.225C0.236,-0.196 0.247,-0.172 0.267,-0.154C0.287,-0.135 0.317,-0.126 0.356,-0.126C0.39,-0.126 0.422,-0.129 0.451,-0.136C0.48,-0.143 0.509,-0.154 0.54,-0.168L0.54,-0.031C0.513,-0.017 0.484,-0.007 0.453,-0C0.421,0.007 0.381,0.01 0.333,0.01C0.277,0.01 0.228,-0 0.184,-0.02C0.14,-0.04 0.105,-0.071 0.08,-0.112C0.055,-0.154 0.042,-0.208 0.042,-0.273C0.042,-0.339 0.053,-0.394 0.076,-0.437C0.099,-0.48 0.131,-0.511 0.172,-0.532C0.213,-0.553 0.261,-0.563 0.315,-0.563ZM0.322,-0.433C0.299,-0.433 0.281,-0.426 0.265,-0.412C0.25,-0.398 0.241,-0.375 0.239,-0.345L0.403,-0.345C0.403,-0.361 0.399,-0.376 0.393,-0.39C0.387,-0.403 0.378,-0.414 0.366,-0.421C0.354,-0.429 0.339,-0.433 0.322,-0.433Z" style="fill:white;fill-rule:nonzero;"/>
            </g>
            <g transform="matrix(36,0,0,36,730.605,665.803)">
                <path d="M0.4,-0.563C0.41,-0.563 0.421,-0.562 0.433,-0.561C0.444,-0.559 0.452,-0.558 0.458,-0.557L0.441,-0.377C0.435,-0.379 0.427,-0.38 0.417,-0.381C0.407,-0.382 0.394,-0.383 0.376,-0.383C0.364,-0.383 0.351,-0.382 0.337,-0.379C0.324,-0.377 0.311,-0.372 0.299,-0.365C0.286,-0.358 0.276,-0.347 0.269,-0.332C0.261,-0.317 0.257,-0.297 0.257,-0.272L0.257,-0L0.066,-0L0.066,-0.553L0.208,-0.553L0.238,-0.465L0.247,-0.465C0.257,-0.483 0.27,-0.5 0.286,-0.514C0.302,-0.529 0.319,-0.541 0.339,-0.55C0.359,-0.559 0.379,-0.563 0.4,-0.563Z" style="fill:white;fill-rule:nonzero;"/>
            </g>
            <g transform="matrix(36,0,0,36,747.497,665.803)">
                <path d="M0.042,-0.081C0.042,-0.116 0.052,-0.14 0.073,-0.154C0.093,-0.168 0.117,-0.175 0.146,-0.175C0.173,-0.175 0.196,-0.168 0.216,-0.154C0.236,-0.14 0.246,-0.116 0.246,-0.081C0.246,-0.048 0.236,-0.024 0.216,-0.01C0.196,0.005 0.173,0.012 0.146,0.012C0.117,0.012 0.093,0.005 0.073,-0.01C0.052,-0.024 0.042,-0.048 0.042,-0.081Z" style="fill:white;fill-rule:nonzero;"/>
            </g>
            <g transform="matrix(36,0,0,36,757.904,665.803)">
                <path d="M0.042,-0.081C0.042,-0.116 0.052,-0.14 0.073,-0.154C0.093,-0.168 0.117,-0.175 0.146,-0.175C0.173,-0.175 0.196,-0.168 0.216,-0.154C0.236,-0.14 0.246,-0.116 0.246,-0.081C0.246,-0.048 0.236,-0.024 0.216,-0.01C0.196,0.005 0.173,0.012 0.146,0.012C0.117,0.012 0.093,0.005 0.073,-0.01C0.052,-0.024 0.042,-0.048 0.042,-0.081Z" style="fill:white;fill-rule:nonzero;"/>
            </g>
            <g transform="matrix(36,0,0,36,768.31,665.803)">
                <path d="M0.042,-0.081C0.042,-0.116 0.052,-0.14 0.073,-0.154C0.093,-0.168 0.117,-0.175 0.146,-0.175C0.173,-0.175 0.196,-0.168 0.216,-0.154C0.236,-0.14 0.246,-0.116 0.246,-0.081C0.246,-0.048 0.236,-0.024 0.216,-0.01C0.196,0.005 0.173,0.012 0.146,0.012C0.117,0.012 0.093,0.005 0.073,-0.01C0.052,-0.024 0.042,-0.048 0.042,-0.081Z" style="fill:white;fill-rule:nonzero;"/>
            </g>
        </g>
    </g>
</svg>
